<?xml version="1.0" standalone="no"?>
<!DOCTYPE svg PUBLIC "-//W3C//DTD SVG 20010904//EN"
 "http://www.w3.org/TR/2001/REC-SVG-20010904/DTD/svg10.dtd">
<svg version="1.0" xmlns="http://www.w3.org/2000/svg"
 width="96.000000pt" height="96.000000pt" viewBox="0 0 96.000000 96.000000"
 preserveAspectRatio="xMidYMid meet">
<metadata>
Created by potrace 1.13, written by Peter Selinger 2001-2015
</metadata>
<g transform="translate(0.000000,96.000000) scale(0.100000,-0.100000)"
fill="#000000" stroke="none">
<path d="M361 944 c-86 -23 -167 -72 -230 -139 -89 -96 -131 -199 -131 -325 0
-189 105 -356 277 -438 77 -37 79 -37 203 -37 124 0 126 0 203 37 247 118 346
406 226 654 -32 67 -128 166 -197 202 -112 60 -238 77 -351 46z m75 -286 c35
-35 38 -98 7 -130 l-22 -22 30 -18 c64 -39 71 -134 13 -189 -22 -21 -37 -24
-115 -27 l-89 -4 0 212 0 212 75 -4 c65 -3 78 -7 101 -30z m184 -163 l0 -195
55 0 c42 0 55 -3 55 -15 0 -12 -15 -15 -75 -15 l-75 0 0 210 c0 203 1 210 20
210 19 0 20 -7 20 -195z"/>
<path d="M292 588 l3 -73 50 2 c38 1 54 7 67 23 45 56 3 120 -79 120 l-44 0 3
-72z"/>
<path d="M290 390 l0 -90 61 0 c54 0 64 3 90 29 39 40 39 82 0 122 -26 26 -36
29 -90 29 l-61 0 0 -90z"/>
</g>
</svg>
